<?xml version="1.0" encoding="iso-8859-1"?>
<!-- Generator: Adobe Illustrator 19.0.0, SVG Export Plug-In . SVG Version: 6.00 Build 0)  -->
<svg version="1.1" id="Capa_1" xmlns="http://www.w3.org/2000/svg" xmlns:xlink="http://www.w3.org/1999/xlink" x="0px" y="0px"
	 viewBox="0 0 512 512" style="enable-background:new 0 0 512 512;" xml:space="preserve">
<path style="fill:#53515E;" d="M486.641,392.931V90.878c0-19.114-15.197-34.608-33.944-34.608H59.304
	c-18.747,0-33.944,15.495-33.944,34.608v301.85"/>
<path style="fill:#DFE2EA;" d="M301.253,390.491L301.253,390.491c-38.353,0-54.059,0-90.781,0l0,0H5.002
	C2.24,390.491,0,392.73,0,395.493v11.349c0,27,21.888,48.888,48.888,48.888h414.224c27,0,48.888-21.888,48.888-48.888v-11.349
	c0-2.762-2.239-5.002-5.002-5.002H301.253z"/>
<path style="fill:#C7CAD3;" d="M2.784,423.111c6.705,19,24.81,32.619,46.104,32.619h414.224c21.295,0,39.4-13.619,46.104-32.619
	H301.253c-38.353,0-54.059,0-90.781,0H2.784z"/>
<rect x="63.922" y="94.31" style="fill:#E9EBF2;" width="387.85" height="258.81"/>
<path style="fill:#DFE2EA;" d="M405.808,94.309v25.077c0,106.302-86.175,192.477-192.477,192.477H63.922v41.253h387.85V94.309
	H405.808z"/>
<g>
	<path style="fill:#53515E;" d="M203.252,225.671c-23.764,0-43.098-19.334-43.098-43.098v-7.106c0-4.377,3.548-7.925,7.925-7.925
		s7.925,3.548,7.925,7.925v7.106c0,15.025,12.224,27.249,27.249,27.249c4.377,0,7.925,3.548,7.925,7.925
		C211.177,222.123,207.629,225.671,203.252,225.671z"/>
	<path style="fill:#53515E;" d="M310.335,225.671c-4.377,0-7.925-3.548-7.925-7.925s3.548-7.925,7.925-7.925
		c15.025,0,27.249-12.223,27.249-27.249v-7.106c0-4.377,3.548-7.925,7.925-7.925c4.377,0,7.925,3.548,7.925,7.925v7.106
		C353.433,206.337,334.099,225.671,310.335,225.671z"/>
	<path style="fill:#53515E;" d="M330.299,331.137c-4.377,0-7.925-3.548-7.925-7.925v-7.106c0-15.025-12.224-27.249-27.247-27.249
		c-4.377,0-7.925-3.548-7.925-7.925c0-4.377,3.548-7.925,7.925-7.925c23.764,0,43.097,19.334,43.097,43.098v7.106
		C338.224,327.589,334.676,331.137,330.299,331.137z"/>
	<path style="fill:#53515E;" d="M181.2,331.137c-4.377,0-7.925-3.548-7.925-7.925v-7.106c0-23.764,19.334-43.098,43.098-43.098
		c4.377,0,7.925,3.548,7.925,7.925c0,4.377-3.548,7.925-7.925,7.925c-15.025,0-27.249,12.224-27.249,27.249v7.106
		C189.125,327.589,185.577,331.137,181.2,331.137z"/>
	<path style="fill:#53515E;" d="M203.958,255.514h-44.979c-4.377,0-7.925-3.548-7.925-7.925s3.548-7.925,7.925-7.925h44.979
		c4.377,0,7.925,3.548,7.925,7.925S208.335,255.514,203.958,255.514z"/>
</g>
<g>
	<path style="fill:#C7CAD3;" d="M234.439,190.728c-4.377,0-7.925-3.548-7.925-7.925v-9.69c0-3.418-2.78-6.198-6.197-6.198
		c-12.157,0-22.048-9.89-22.048-22.047v-10.174c0-4.377,3.548-7.925,7.925-7.925s7.925,3.548,7.925,7.925v10.174
		c0,3.417,2.781,6.197,6.198,6.197c12.156,0,22.047,9.89,22.047,22.047v9.69C242.364,187.18,238.816,190.728,234.439,190.728z"/>
	<path style="fill:#C7CAD3;" d="M278.667,190.728c-4.377,0-7.925-3.548-7.925-7.925v-9.69c0-12.157,9.89-22.047,22.047-22.047
		c3.418,0,6.197-2.78,6.197-6.197v-10.174c0-4.377,3.548-7.925,7.925-7.925c4.377,0,7.925,3.548,7.925,7.925v10.174
		c0,12.157-9.89,22.047-22.047,22.047c-3.418,0-6.197,2.78-6.197,6.198v9.69C286.592,187.18,283.044,190.728,278.667,190.728z"/>
</g>
<g>
	<path style="fill:#53515E;" d="M352.54,255.514h-44.979c-4.377,0-7.925-3.548-7.925-7.925s3.548-7.925,7.925-7.925h44.979
		c4.377,0,7.925,3.548,7.925,7.925S356.918,255.514,352.54,255.514z"/>
	<circle style="fill:#53515E;" cx="256.31" cy="214.25" r="44.42"/>
</g>
<path style="fill:#474756;" d="M256.306,169.823c-3.241,0-6.398,0.356-9.441,1.015c19.997,4.33,34.982,22.115,34.982,43.408
	s-14.985,39.078-34.982,43.408c3.044,0.659,6.2,1.015,9.441,1.015c24.534,0,44.423-19.889,44.423-44.423
	C300.729,189.712,280.84,169.823,256.306,169.823z"/>
<path style="fill:#FF6B5C;" d="M204.083,209.778c-1.568,7.485-2.414,15.437-2.414,23.682c0,44.261,24.326,80.141,54.333,80.141
	s54.333-35.88,54.333-80.141c0-8.244-0.846-16.196-2.414-23.682L204.083,209.778L204.083,209.778z"/>
<g>
	<path style="fill:#D85750;" d="M307.922,209.778h-18.579c1.568,7.485,2.414,15.437,2.414,23.682
		c0,39.587-19.465,72.447-45.044,78.951c3.02,0.768,6.121,1.191,9.289,1.191c30.007,0,54.333-35.88,54.333-80.141
		C310.336,225.216,309.489,217.263,307.922,209.778z"/>
	<path style="fill:#D85750;" d="M256.305,229.446c-4.377,0-7.925,3.548-7.925,7.925V312.8c2.491,0.516,5.033,0.801,7.621,0.801
		c2.797,0,5.545-0.313,8.228-0.915V237.37C264.23,232.994,260.683,229.446,256.305,229.446z"/>
</g>
<g>
	<circle style="fill:#FFFFFF;" cx="239.42" cy="195.19" r="6.252"/>
	<circle style="fill:#FFFFFF;" cx="271.72" cy="195.19" r="6.252"/>
</g>
<g>
</g>
<g>
</g>
<g>
</g>
<g>
</g>
<g>
</g>
<g>
</g>
<g>
</g>
<g>
</g>
<g>
</g>
<g>
</g>
<g>
</g>
<g>
</g>
<g>
</g>
<g>
</g>
<g>
</g>
</svg>
