<svg height="512pt" viewBox="-72 0 512 512" width="512pt" xmlns="http://www.w3.org/2000/svg"><path d="m338.90625 178.890625c-4.355469 0-7.886719-3.53125-7.886719-7.886719v-8.484375c0-80.917969-65.828125-146.746093-146.746093-146.746093-80.914063 0-146.746094 65.828124-146.746094 146.746093v8.484375c0 4.355469-3.53125 7.886719-7.886719 7.886719s-7.886719-3.53125-7.886719-7.886719v-8.484375c0-89.613281 72.90625-162.519531 162.519532-162.519531 89.613281 0 162.519531 72.90625 162.519531 162.519531v8.484375c0 4.355469-3.53125 7.886719-7.886719 7.886719zm0 0" fill="#f7526e"/><path d="m171.621094 262.234375h-112.339844c0 36.332031-18.175781 82.574219-35.644531 100.046875 0 0 13.054687 17.992188 63.5625 17.992188h84.421875zm0 0" fill="#f2a755"/><path d="m309.265625 262.234375h-125v118.039063h97.082031c50.507813 0 63.5625-17.992188 63.5625-17.992188-17.46875-17.472656-35.644531-63.71875-35.644531-100.046875zm0 0" fill="#f4d553"/><path d="m309.257812 459.011719v52.988281h-249.980468v-52.988281c0-69.027344 55.957031-124.992188 124.984375-124.992188 9.769531 0 19.273437 1.125 28.398437 3.238281 23.117188 5.371094 43.769532 17.160157 59.988282 33.371094 22.617187 22.621094 36.609374 53.871094 36.609374 88.382813zm0 0" fill="#31ad7a"/><path d="m309.257812 459.011719v52.988281h-193.183593v-52.988281c0-59.261719 41.242187-108.894531 96.585937-121.753907 23.117188 5.371094 43.769532 17.160157 59.988282 33.371094 22.617187 22.621094 36.609374 53.871094 36.609374 88.382813zm0 0" fill="#4ccc9b"/><path d="m112.378906 356.730469c2.050782 37.9375 33.445313 68.0625 71.886719 68.0625 4.679687 0 9.253906-.453125 13.679687-1.304688 31.976563-6.140625 56.421876-33.433593 58.207032-66.757812" fill="#d39b71"/><path d="m184.273438 34.453125c69.03125 0 124.992187 55.960937 124.992187 124.992187v91.953126c0 60.910156-43.582031 111.644531-101.253906 122.726562-6.605469 1.269531-13.386719 2.027344-20.316407 2.21875h-.167968c-1.195313.03125-2.390625.042969-3.597656.039062-68.894532-.128906-124.648438-56.089843-124.648438-124.984374v-91.953126c0-69.03125 55.960938-124.992187 124.992188-124.992187zm0 0" fill="#ffd0a6"/><path d="m205.792969 374.527344c-5.898438 1.03125-11.945313 1.652344-18.097657 1.820312h-.167968c-1.199219.03125-2.386719.039063-3.597656.039063-68.898438-.136719-124.648438-56.09375-124.648438-124.984375v-91.960938c0-69.027344 55.957031-124.988281 124.996094-124.988281 7.363281 0 14.5625.632813 21.578125 1.863281-58.757813 10.21875-103.410157 61.457032-103.410157 123.125v91.960938c0 61.625 44.613282 112.90625 103.347657 123.125zm0 0" fill="#e8b182"/><path d="m309.261719 173.144531v31.101563c-132.632813 0-168.6875-73.054688-168.6875-73.054688-13.5625 30.617188-51.171875 51.171875-81.296875 51.171875v-9.21875c0-69.027343 55.957031-124.988281 124.996094-124.988281 69.027343 0 124.988281 55.960938 124.988281 124.988281zm0 0" fill="#e8b182"/><path d="m309.261719 159.441406v31.101563c-132.632813 0-168.6875-73.054688-168.6875-73.054688-13.5625 30.617188-51.171875 51.175781-81.296875 51.175781v-9.222656c0-69.027344 55.957031-124.984375 124.996094-124.984375 69.027343 0 124.988281 55.957031 124.988281 124.984375zm0 0" fill="#f4d553"/><path d="m205.859375 36.316406c-.027344-.003906-.050781-.007812-.074219-.011718-1.621094-.285157-3.253906-.53125-4.894531-.75-.152344-.019532-.304687-.042969-.460937-.0625-1.542969-.199219-3.097657-.363282-4.65625-.507813-.347657-.03125-.691407-.0625-1.039063-.089844-1.53125-.128906-3.066406-.230469-4.613281-.300781-.300782-.011719-.601563-.019531-.902344-.035156-1.636719-.0625-3.277344-.101563-4.925781-.105469-.003907 0-.007813 0-.011719 0-69.039062 0-125 55.960937-125 124.988281v9.222656c13.839844 0 29.257812-4.351562 43.199219-12.011718 1.324219-60.417969 45.511719-110.269532 103.378906-120.335938zm0 0" fill="#f2a755"/><path d="m184.265625 304.550781c-16.089844 0-32.179687-6.125-44.429687-18.375-3.082032-3.082031-3.082032-8.074219 0-11.152343 3.078124-3.082032 8.074218-3.082032 11.152343 0 18.347657 18.347656 48.207031 18.347656 66.558594 0 3.078125-3.082032 8.074219-3.082032 11.152344 0 3.078125 3.078124 3.078125 8.070312 0 11.152343-12.25 12.25-28.339844 18.375-44.433594 18.375zm0 0" fill="#d39b71"/><path d="m129.820312 241.308594c-4.355468 0-7.886718-3.53125-7.886718-7.886719v-30.722656c0-4.355469 3.53125-7.886719 7.886718-7.886719 4.355469 0 7.886719 3.53125 7.886719 7.886719v30.722656c0 4.355469-3.53125 7.886719-7.886719 7.886719zm0 0" fill="#1a414c"/><path d="m238.726562 241.308594c-4.355468 0-7.886718-3.53125-7.886718-7.886719v-30.722656c0-4.355469 3.53125-7.886719 7.886718-7.886719 4.355469 0 7.886719 3.53125 7.886719 7.886719v30.722656c0 4.355469-3.53125 7.886719-7.886719 7.886719zm0 0" fill="#1a414c"/><path d="m29.640625 291.875c16.371094 0 29.640625-13.269531 29.640625-29.640625v-72.101563c0-16.371093-13.269531-29.640624-29.640625-29.640624s-29.640625 13.269531-29.640625 29.640624v72.101563c0 16.371094 13.269531 29.640625 29.640625 29.640625zm0 0" fill="#2e5968"/><path d="m40.101562 289.972656c-3.246093 1.230469-6.78125 1.902344-10.460937 1.902344-16.371094 0-29.640625-13.269531-29.640625-29.640625v-72.097656c0-8.179688 3.324219-15.59375 8.683594-20.953125 5.363281-5.375 12.765625-8.6875 20.957031-8.6875 3.679687 0 7.214844.671875 10.460937 1.902344-3.984374 1.496093-7.546874 3.828124-10.503906 6.785156-5.371094 5.359375-8.683594 12.773437-8.683594 20.953125v72.097656c0 12.691406 7.96875 23.523437 19.1875 27.738281zm0 0" fill="#1a414c"/><path d="m252.292969 342.421875c-6.132813 0-12.660157-.222656-19.613281-.695313-4.347657-.296874-7.628907-4.058593-7.332032-8.40625.296875-4.34375 4.0625-7.628906 8.402344-7.332031 49.050781 3.34375 73.042969-6.671875 84.527344-15.671875 10.796875-8.457031 12.519531-17.335937 12.742187-18.886718v-29.195313c0-4.355469 3.53125-7.882813 7.886719-7.882813s7.886719 3.527344 7.886719 7.882813v29.640625c0 .179688-.007813.359375-.019531.539062-.148438 2.171876-4.550782 50.007813-94.480469 50.007813zm0 0" fill="#f7526e"/><path d="m233.28125 332.585938c0 7.886718-6.390625 14.277343-14.277344 14.277343-7.886718 0-14.277344-6.390625-14.277344-14.277343 0-7.882813 6.390626-14.273438 14.277344-14.273438 7.886719 0 14.277344 6.390625 14.277344 14.273438zm0 0" fill="#1a414c"/><path d="m338.90625 291.875c16.371094 0 29.640625-13.269531 29.640625-29.640625v-72.101563c0-16.371093-13.269531-29.640624-29.640625-29.640624s-29.640625 13.269531-29.640625 29.640624v72.101563c0 16.371094 13.269531 29.640625 29.640625 29.640625zm0 0" fill="#2e5968"/><path d="m349.367188 289.972656c-3.25 1.230469-6.78125 1.902344-10.460938 1.902344-16.371094 0-29.640625-13.269531-29.640625-29.640625v-72.097656c0-8.179688 3.320313-15.59375 8.683594-20.953125 5.363281-5.375 12.765625-8.6875 20.957031-8.6875 3.679688 0 7.210938.671875 10.460938 1.902344-3.984376 1.496093-7.546876 3.828124-10.503907 6.785156-5.371093 5.359375-8.683593 12.773437-8.683593 20.953125v72.097656c0 12.691406 7.96875 23.523437 19.1875 27.738281zm0 0" fill="#1a414c"/></svg>