<?xml version="1.0" encoding="iso-8859-1"?>
<!-- Generator: Adobe Illustrator 19.0.0, SVG Export Plug-In . SVG Version: 6.00 Build 0)  -->
<svg version="1.1" id="Layer_1" xmlns="http://www.w3.org/2000/svg" xmlns:xlink="http://www.w3.org/1999/xlink" x="0px" y="0px"
	 viewBox="0 0 508 508" style="enable-background:new 0 0 508 508;" xml:space="preserve">
<circle style="fill:#90DFAA;" cx="254" cy="254" r="254"/>
<path style="fill:#324A5E;" d="M410,145.2l-172-68L219.6,124l-46.8-18l-86,218.8c-4,10.4,1.2,21.6,11.2,25.6l200.4,78.8
	c10.4,4,21.6-1.2,25.6-11.2l97.2-247.2C425.2,160.4,420.4,149.2,410,145.2z"/>
<path style="fill:#FFFFFF;" d="M361.6,77.2H176.8v30.4c0,10.8-8.8,20-20,20h-30.4v235.2c0,10.8,8.8,20,20,20H362
	c10.8,0,20-8.8,20-20V97.2C381.6,86.4,372.8,77.2,361.6,77.2z"/>
<g>
	<path style="fill:#E6E9EE;" d="M176.8,77.2l-50.4,50.4h30.4c10.8,0,20-8.8,20-20C176.8,107.6,176.8,77.2,176.8,77.2z"/>
	<rect x="157.2" y="159.6" style="fill:#E6E9EE;" width="193.2" height="15.6"/>
	<rect x="157.2" y="198" style="fill:#E6E9EE;" width="193.2" height="15.6"/>
	<rect x="157.2" y="236.8" style="fill:#E6E9EE;" width="193.2" height="15.6"/>
	<rect x="157.2" y="275.6" style="fill:#E6E9EE;" width="193.2" height="15.6"/>
	<rect x="157.2" y="314.4" style="fill:#E6E9EE;" width="127.2" height="15.6"/>
</g>
<g>
</g>
<g>
</g>
<g>
</g>
<g>
</g>
<g>
</g>
<g>
</g>
<g>
</g>
<g>
</g>
<g>
</g>
<g>
</g>
<g>
</g>
<g>
</g>
<g>
</g>
<g>
</g>
<g>
</g>
</svg>
