<svg height="512pt" viewBox="0 0 512 512.00032" width="512pt" xmlns="http://www.w3.org/2000/svg"><path d="m490.714844 388.421875c13.722656 13.671875 21.285156 31.863281 21.285156 51.210937 0 19.347657-7.550781 37.539063-21.261719 51.214844l-.136719.132813c-14.136718 14.019531-32.652343 21.027343-51.179687 21.019531-18.578125 0-37.15625-7.042969-51.292969-21.144531l-155.917968-155.402344-16.363282-38.070313-16.996094-39.546874-.222656.226562-90.964844-90.492188-63.671874-32.90625c-3.902344-2.023437-7.035157-5.140624-9.058594-9.042968l-32.410156-62.371094c-4.277344-8.238281-2.734376-18.167969 3.839843-24.714844l16.015625-15.96875 16.421875-16.375c6.53125-6.519531 16.4375-8.054687 24.652344-3.824218l62.59375 32.285156c3.917969 2.023437 7.054687 5.148437 9.085937 9.058594l32.933594 63.5 90.335938 89.949218 39.242187 18.394532 37.015625 17.339843zm0 0" fill="#daf0fa"/><path d="m490.714844 388.421875c13.722656 13.671875 21.285156 31.863281 21.285156 51.210937 0 19.347657-7.550781 37.539063-21.261719 51.214844l-.136719.132813-468.222656-468.414063 16.421875-16.375c6.53125-6.519531 16.4375-8.054687 24.652344-3.824218l62.59375 32.285156c3.917969 2.023437 7.054687 5.148437 9.085937 9.058594l32.933594 63.5 90.335938 89.949218 39.242187 18.394532 37.015625 17.339843zm0 0" fill="#b0e1ff"/><path d="m490.714844 388.421875c13.722656 13.671875 21.285156 31.863281 21.285156 51.210937 0 19.347657-7.550781 37.539063-21.261719 51.214844l-.136719.132813c-14.136718 14.019531-32.652343 21.027343-51.179687 21.019531-18.578125 0-37.15625-7.042969-51.292969-21.144531l-155.917968-155.402344-16.363282-38.070313 81.796875-81.828124 37.015625 17.339843zm0 0" fill="#ff2316"/><path d="m490.714844 388.421875c13.722656 13.671875 21.285156 31.863281 21.285156 51.210937 0 19.347657-7.550781 37.539063-21.261719 51.214844l-.136719.132813-234.136718-234.230469 41.179687-41.195312 37.015625 17.339843zm0 0" fill="#d60000"/><path d="m481.027344 178.03125c-23.179688 23.089844-55.019532 33.867188-87.359375 29.617188-7.015625-.960938-14.152344 1.472656-19.160157 6.480468l-281.703124 281.792969c-10.269532 10.273437-23.929688 15.929687-38.449219 15.929687-.027344 0-.042969 0-.070313 0-14.546875-.011718-28.210937-5.707031-38.484375-16.023437l-.007812-.007813c-21.09375-21.214843-21.058594-55.675781.105469-76.835937l281.746093-281.835937c5-5 7.425781-12.148438 6.476563-19.121094-4.253906-32.40625 6.53125-64.242188 29.585937-87.402344 23.269531-23.28125 56.574219-34.265625 89.117188-29.429688l.207031.035157c7.578125 1.230469 13.757812 6.550781 16.101562 13.863281 2.347657 7.28125.453126 15.148438-4.949218 20.550781l-26.980469 27.078125c-3.402344 3.386719-5.246094 7.820313-5.261719 12.558594-.003906 4.773438 1.855469 9.265625 5.246094 12.660156l16.597656 16.605469c3.367188 3.378906 7.804688 5.234375 12.535156 5.238281 4.734376 0 9.273438-1.851562 12.660157-5.238281l26.996093-27.007813c5.464844-5.46875 13.433594-7.339843 20.785157-4.878906 7.34375 2.4375 12.574219 8.703125 13.671875 16.335938 4.820312 32.460937-6.164063 65.785156-29.40625 89.035156zm0 0" fill="#0db2ff"/><path d="m481.027344 178.03125c-23.179688 23.089844-55.019532 33.867188-87.359375 29.617188-7.015625-.960938-14.152344 1.472656-19.160157 6.480468l-281.703124 281.792969c-10.269532 10.273437-23.929688 15.929687-38.449219 15.929687-.027344 0-.042969 0-.070313 0-14.546875-.011718-28.210937-5.707031-38.484375-16.023437l-.007812-.007813 399.554687-399.71875 8.441406 8.445313c3.363282 3.378906 7.804688 5.234375 12.53125 5.238281 4.738282 0 9.277344-1.851562 12.660157-5.238281l27-27.007813c5.460937-5.46875 13.429687-7.339843 20.78125-4.878906 7.34375 2.4375 12.578125 8.703125 13.671875 16.335938 4.820312 32.460937-6.164063 65.785156-29.40625 89.035156zm0 0" fill="#0089ff"/></svg>